<?xml version="1.0" encoding="utf-8"?>
<!-- Generator: Adobe Illustrator 18.1.1, SVG Export Plug-In . SVG Version: 6.00 Build 0)  -->
<!DOCTYPE svg PUBLIC "-//W3C//DTD SVG 1.1//EN" "http://www.w3.org/Graphics/SVG/1.1/DTD/svg11.dtd">
<svg version="1.1" id="Layer_1" xmlns="http://www.w3.org/2000/svg" xmlns:xlink="http://www.w3.org/1999/xlink" x="0px" y="0px"
	 viewBox="0 0 24 24" enable-background="new 0 0 24 24" xml:space="preserve">
<path id="facebook_5_" fill-rule="evenodd" clip-rule="evenodd" d="M22.1,24H1.9c-1,0-1.8-0.8-1.8-1.8V1.8C0,0.8,0.8,0,1.9,0h20.3
	c1,0,1.8,0.8,1.8,1.8v20.4C24,23.3,23.2,24,22.1,24z M10.2,4.6c-1.1,0-2.2,0.2-2.9,0.5c-0.7,0.3-1.2,1-1.5,1.5
	C5.6,7.2,5.5,7.9,5.5,9v1.1H3.7v2.8h1.8v9.3h3.8v-9.3h2.4l0.7-2.8H9.3v-1c0-0.7,0.1-1.1,0.4-1.4c0.2-0.2,0.7-0.4,1.3-0.4
	c0.6,0,1,0.3,1.6,0.6l0.7-2.6C12.2,5,11.3,4.6,10.2,4.6z"/>
</svg>
