<?xml version="1.0" encoding="utf-8"?>
<!-- Generator: Adobe Illustrator 18.1.1, SVG Export Plug-In . SVG Version: 6.00 Build 0)  -->
<!DOCTYPE svg PUBLIC "-//W3C//DTD SVG 1.1//EN" "http://www.w3.org/Graphics/SVG/1.1/DTD/svg11.dtd">
<svg version="1.1" id="Layer_1" xmlns="http://www.w3.org/2000/svg" xmlns:xlink="http://www.w3.org/1999/xlink" x="0px" y="0px"
	 viewBox="0 0 24 24" enable-background="new 0 0 24 24" xml:space="preserve">
<path id="github-2-icon" d="M24,11.7l0-0.2c-1.3-0.1-2.7-0.1-3.9,0c0.2-0.7,0.3-1.4,0.3-2.3c0-1.8-0.6-3.2-1.6-4.4
	c0.2-1.1,0-2.2-0.3-3.3c-1.3,0.1-2.6,0.6-3.6,1.3c-2-0.4-4-0.4-6.1,0C7.5,2,6.3,1.6,5.1,1.5C4.7,2.7,4.6,3.9,4.9,5.1
	c-1.1,1.1-1.5,2.5-1.5,4c0,0.9,0.1,1.6,0.4,2.3c-1.3-0.1-2.6-0.1-3.9,0l0,0.2c1.3-0.1,2.7-0.1,4,0c0,0.1,0.1,0.2,0.2,0.3
	c-1.4,0-2.7,0.1-3.8,0.4l0.1,0.2c1.2-0.3,2.5-0.4,3.9-0.4c0.9,1.7,2.8,2.7,5.4,3c-0.6,0.5-0.9,1.1-1,1.8c0,0-0.3,0-1.4,0
	c-1.9,0-2.4-2.4-4.4-2.2c1.9,0.9,1.5,3.9,4.6,3.9c1,0,1.2,0,1.3,0v2.8c0,0.4-0.2,0.7-0.5,0.9c1.1,0.1,1.9-0.4,1.9-1.1
	c0-0.7,0-3.3,0-3.6c0-0.3,0.3-0.4,0.3-0.4v4.3c0,0.4-0.2,0.7-0.4,0.9c1,0,1.9-0.2,1.9-1c0,0,0-3.9,0-4.1c0-0.2,0.3-0.2,0.3,0
	c0,0.2,0,3.9,0,3.9c0,0.7,0.6,1.2,1.9,1.2c-0.3-0.3-0.4-0.5-0.4-0.9c0-0.4,0-4.2,0-4.2s0.3,0,0.3,0.4c0,0.4,0,2.9,0,3.5
	c0,0.8,0.9,1.1,2,1.1c-0.4-0.3-0.6-0.6-0.6-1v-4.3c0-0.6-0.3-1.2-0.8-1.8c2.4-0.4,4.2-1.3,5-3.1c1.4,0,2.7,0.1,3.9,0.4l0.1-0.2
	c-1.2-0.3-2.5-0.4-3.9-0.4c0-0.1,0.1-0.2,0.1-0.3C21.3,11.5,22.6,11.6,24,11.7z M3.7,15.1c-0.1,0-0.1,0-0.1-0.1c0,0,0-0.1,0.1-0.1
	c0.1,0,0.1,0,0.1,0.1C3.8,15.1,3.8,15.1,3.7,15.1z M4.1,15.4c-0.1,0-0.1,0-0.1-0.1c0,0,0.1-0.1,0.1-0.1c0.1,0,0.1,0,0.1,0.1
	C4.2,15.3,4.1,15.4,4.1,15.4z M4.4,15.7c-0.1,0-0.1,0-0.1-0.1c0-0.1,0.1-0.1,0.1-0.1c0.1,0,0.1,0,0.1,0.1
	C4.6,15.6,4.5,15.7,4.4,15.7z M4.7,16c-0.1,0-0.2-0.1-0.2-0.1s0.1-0.1,0.2-0.1s0.2,0.1,0.2,0.1S4.8,16,4.7,16z M5.1,16.5
	c-0.1,0-0.2-0.1-0.2-0.1s0.1-0.1,0.2-0.1c0.1,0,0.2,0.1,0.2,0.1S5.2,16.5,5.1,16.5z M5.5,16.9c-0.1,0-0.2-0.1-0.2-0.1
	c0-0.1,0.1-0.1,0.2-0.1c0.1,0,0.2,0.1,0.2,0.1C5.7,16.8,5.7,16.9,5.5,16.9z M6.1,17.3c-0.1,0-0.2-0.1-0.2-0.2c0-0.1,0.1-0.2,0.2-0.2
	c0.1,0,0.2,0.1,0.2,0.2C6.3,17.2,6.2,17.3,6.1,17.3z M6.8,17.5c-0.1,0-0.2-0.1-0.2-0.2c0-0.1,0.1-0.2,0.2-0.2c0.1,0,0.2,0.1,0.2,0.2
	C7.1,17.4,7,17.5,6.8,17.5z M7.6,17.5c-0.1,0-0.2-0.1-0.2-0.2c0-0.1,0.1-0.2,0.2-0.2s0.2,0.1,0.2,0.2C7.8,17.4,7.7,17.5,7.6,17.5z
	 M8.3,17.5c-0.1,0-0.2-0.1-0.2-0.2c0-0.1,0.1-0.2,0.2-0.2c0.1,0,0.2,0.1,0.2,0.2C8.6,17.4,8.5,17.5,8.3,17.5z"/>
</svg>
