<?xml version="1.0" encoding="utf-8"?>
<!-- Generator: Adobe Illustrator 18.1.1, SVG Export Plug-In . SVG Version: 6.00 Build 0)  -->
<!DOCTYPE svg PUBLIC "-//W3C//DTD SVG 1.1//EN" "http://www.w3.org/Graphics/SVG/1.1/DTD/svg11.dtd">
<svg version="1.1" id="Layer_1" xmlns="http://www.w3.org/2000/svg" xmlns:xlink="http://www.w3.org/1999/xlink" x="0px" y="0px"
	 viewBox="0 0 24 24" enable-background="new 0 0 24 24" xml:space="preserve">
<path id="instagram_2_" fill-rule="evenodd" clip-rule="evenodd" d="M21,24H3c-1.7,0-3-1.3-3-3V3c0-1.7,1.3-3,3-3h18
	c1.7,0,3,1.3,3,3v18C24,22.7,22.7,24,21,24z M12,7.3c-1.9,0-3.5,1.1-4.2,2.7h0c0,0,0,0,0,0.1c0,0.1-0.1,0.2-0.1,0.3
	c0,0,0,0.1-0.1,0.1c0,0.1-0.1,0.2-0.1,0.3c0,0.1,0,0.1,0,0.2c0,0.1,0,0.2-0.1,0.3c0,0,0,0.1,0,0.1c0,0.2,0,0.3,0,0.5
	c0,2.6,2.1,4.6,4.7,4.6c2.6,0,4.6-2.1,4.6-4.6c0-0.2,0-0.3,0-0.5c0,0,0-0.1,0-0.1c0-0.1,0-0.2-0.1-0.3c0-0.1,0-0.1,0-0.2
	c0-0.1-0.1-0.2-0.1-0.3c0,0,0-0.1-0.1-0.1c0-0.1-0.1-0.2-0.1-0.3c0,0,0,0,0-0.1h0C15.5,8.5,13.9,7.3,12,7.3z M21.3,3.9
	c0-0.7-0.5-1.2-1.2-1.2h-2.4c-0.7,0-1.2,0.5-1.2,1.2v2.4c0,0.7,0.5,1.2,1.2,1.2h2.4c0.7,0,1.2-0.5,1.2-1.2V3.9z M21.3,10h-2.2
	c0.2,0.6,0.3,1.3,0.3,2c0,4.1-3.3,7.3-7.3,7.3S4.7,16.1,4.7,12c0-0.7,0.1-1.3,0.3-2H2.7v10c0,0.7,0.5,1.2,1.2,1.2h16.2
	c0.7,0,1.2-0.5,1.2-1.2V10z"/>
</svg>
