<?xml version="1.0" encoding="utf-8"?>
<!-- Generator: Adobe Illustrator 18.1.1, SVG Export Plug-In . SVG Version: 6.00 Build 0)  -->
<!DOCTYPE svg PUBLIC "-//W3C//DTD SVG 1.1//EN" "http://www.w3.org/Graphics/SVG/1.1/DTD/svg11.dtd">
<svg version="1.1" id="Layer_1" xmlns="http://www.w3.org/2000/svg" xmlns:xlink="http://www.w3.org/1999/xlink" x="0px" y="0px"
	 viewBox="0 0 24 24" enable-background="new 0 0 24 24" xml:space="preserve">
<path id="linkedin_2_" fill-rule="evenodd" clip-rule="evenodd" d="M18.7,23.4v-8.3c0-1.7-0.5-3.4-2.5-3.4c-2,0-2.8,1.7-2.8,3.5v8.3
	H7.9V8.2h5.4v2.1c1.4-1.8,2.6-2.5,4.9-2.5c2.2,0,5.8,1,5.8,7.1v8.7H18.7z M3,5.9c-1.7,0-3-1.2-3-2.7c0-1.5,1.3-2.7,3-2.7
	c1.7,0,3,1.2,3,2.7C6,4.7,4.6,5.9,3,5.9z M5.7,23.4H0.3V8.2h5.4V23.4z"/>
</svg>
