<?xml version="1.0" encoding="utf-8"?>
<!-- Generator: Adobe Illustrator 18.1.1, SVG Export Plug-In . SVG Version: 6.00 Build 0)  -->
<!DOCTYPE svg PUBLIC "-//W3C//DTD SVG 1.1//EN" "http://www.w3.org/Graphics/SVG/1.1/DTD/svg11.dtd">
<svg version="1.1" id="Layer_1" xmlns="http://www.w3.org/2000/svg" xmlns:xlink="http://www.w3.org/1999/xlink" x="0px" y="0px"
	 viewBox="0 0 24 24" enable-background="new 0 0 24 24" xml:space="preserve">
<path id="twitter_2_" fill-rule="evenodd" clip-rule="evenodd" d="M16.3,2.3c1.9,0,2.9,0.7,3.9,1.5C21,3.7,22.1,3.3,22.7,3
	c0.2-0.1,0.4-0.2,0.6-0.3c-0.4,1-0.8,1.7-1.6,2.3c-0.2,0.1-0.3,0.3-0.5,0.4c0,0,0,0,0,0c1.1,0,1.9-0.5,2.8-0.8c0,0,0,0,0,0
	c-0.4,0.7-1,1.4-1.7,1.9c-0.3,0.2-0.5,0.4-0.8,0.6c0,1.1,0,2.2-0.2,3.2c-1.2,5.5-4.5,9.3-9.6,10.9c-1.9,0.6-4.8,0.8-7,0.3
	c-1.1-0.3-2-0.6-2.9-0.9c-0.5-0.2-1-0.5-1.4-0.7c-0.1-0.1-0.3-0.2-0.4-0.3c0.5,0,1,0.1,1.6,0.1c0.5-0.1,1-0.1,1.4-0.2
	c1.1-0.2,2.1-0.6,3-1.1c0.4-0.2,1-0.5,1.3-0.9c-0.6,0-1.1-0.1-1.5-0.3c-1.6-0.6-2.5-1.6-3.1-3.1c0.5,0.1,1.9,0.2,2.2-0.1
	c-0.6,0-1.2-0.4-1.6-0.6C2,12.5,0.9,11.2,0.9,9.1c0.2,0.1,0.3,0.2,0.5,0.2c0.3,0.1,0.6,0.2,1,0.3c0.2,0,0.5,0.1,0.7,0.1c0,0,0,0,0,0
	C2.9,9.4,2.5,9.2,2.2,8.9c-0.8-1-1.6-2.6-1.1-4.5C1.3,4,1.4,3.5,1.7,3.2c0,0,0,0,0,0C1.8,3.4,2,3.5,2.1,3.7c0.4,0.5,0.9,1,1.5,1.4
	C5.4,6.5,7,7.4,9.6,8c0.7,0.2,1.4,0.3,2.2,0.3c-0.2-0.6-0.2-1.7,0-2.3c0.4-1.6,1.4-2.7,2.8-3.3c0.3-0.1,0.7-0.3,1.1-0.3
	C15.9,2.3,16.1,2.3,16.3,2.3z"/>
</svg>
