<?xml version="1.0" encoding="utf-8"?>
<!-- Generator: Adobe Illustrator 18.1.1, SVG Export Plug-In . SVG Version: 6.00 Build 0)  -->
<!DOCTYPE svg PUBLIC "-//W3C//DTD SVG 1.1//EN" "http://www.w3.org/Graphics/SVG/1.1/DTD/svg11.dtd">
<svg version="1.1" id="Layer_1" xmlns="http://www.w3.org/2000/svg" xmlns:xlink="http://www.w3.org/1999/xlink" x="0px" y="0px"
	 viewBox="0 0 24 24" enable-background="new 0 0 24 24" xml:space="preserve">
<path id="google_plus_2_" fill-rule="evenodd" clip-rule="evenodd" d="M20.3,6.9v3.7h-1.5V6.9H15V5.4h3.7V1.7h1.5v3.7H24v1.5H20.3z
	 M9.9,3.2C11.2,3.9,12,5.1,12,6.7C12,8,11.2,9,10.1,9.8c-1,0.8-1.2,1.1-1.2,1.8c0,0.6,1.1,1.5,1.7,1.9c1.7,1.2,2.2,2.2,2.2,4
	c0,2.2-2.2,4.8-6.2,4.8c-3.5,0-6.6-1.7-6.6-3.9c0-2.3,2.8-4.5,6.3-4.5c0.4,0,0.7,0,1.1,0c-0.5-0.5-0.9-1-0.9-1.7
	c0-0.4,0.1-0.8,0.3-1.2c-0.2,0-0.4,0-0.6,0c-2.9,0-4.8-2.1-4.8-4.6c0-2.4,2.7-4.7,5.5-4.7c1.6,0,6.3,0,6.3,0l-1.4,1.5H9.9z M7,14.5
	c-2.4,0-4.6,1.5-4.6,3.2c0,1.8,1.8,3.1,4.2,3.1c3.4,0,4.6-1.2,4.6-3c0-0.2,0-0.4-0.1-0.6c-0.3-1-1.2-1.5-2.5-2.4
	C8.1,14.6,7.6,14.5,7,14.5z M9.7,6.7C9.4,4.6,7.8,2.9,6.2,2.8c-1.6,0-2.7,1.6-2.4,3.7c0.3,2.1,1.8,3.8,3.5,3.9
	C8.8,10.5,10,8.8,9.7,6.7z"/>
</svg>
